<?xml version="1.0" standalone="no"?>
<!DOCTYPE svg PUBLIC "-//W3C//DTD SVG 20010904//EN"
 "http://www.w3.org/TR/2001/REC-SVG-20010904/DTD/svg10.dtd">
<svg version="1.0" xmlns="http://www.w3.org/2000/svg"
 width="1024.000000pt" height="1024.000000pt" viewBox="0 0 1024.000000 1024.000000"
 preserveAspectRatio="xMidYMid meet">
<metadata>
Created by potrace 1.11, written by Peter Selinger 2001-2013
</metadata>
<g transform="translate(0.000000,1024.000000) scale(0.100000,-0.100000)"
fill="#000000" stroke="none">
<path d="M1885 10234 c-312 -37 -511 -92 -739 -206 -406 -203 -721 -516 -925
-918 -98 -192 -156 -369 -198 -605 -17 -95 -18 -276 -18 -3385 0 -3109 1
-3290 18 -3385 83 -465 281 -844 603 -1155 310 -299 665 -477 1109 -557 95
-17 276 -18 3385 -18 3109 0 3290 1 3385 18 444 80 799 258 1109 557 322 311
520 690 603 1155 17 95 18 276 18 3385 0 3109 -1 3290 -18 3385 -80 444 -258
799 -557 1109 -309 320 -681 515 -1150 603 -90 17 -277 18 -3345 19 -1787 1
-3263 0 -3280 -2z m3319 -1734 c20 -12 186 -265 526 -801 363 -572 506 -790
530 -806 45 -31 115 -31 161 0 27 18 88 119 304 502 177 313 285 494 310 520
66 67 124 90 230 90 75 0 98 -4 140 -25 137 -67 213 -229 176 -374 -11 -44
-2988 -5653 -3020 -5690 -9 -10 -30 -25 -48 -32 -65 -28 -128 -12 -174 44 -13
15 -239 368 -502 783 -264 414 -491 763 -505 773 -15 11 -47 21 -76 24 -87 7
-94 -1 -362 -423 -133 -209 -376 -591 -540 -849 -168 -264 -311 -479 -327
-490 -28 -20 -41 -21 -520 -24 -271 -2 -512 0 -536 3 -82 12 -141 101 -120
180 10 36 4132 6540 4171 6582 42 45 122 51 182 13z m2002 -3176 c29 -14 181
-248 1110 -1707 806 -1266 1078 -1700 1081 -1728 8 -58 -27 -122 -81 -148 -41
-20 -58 -21 -542 -21 -463 0 -502 2 -540 19 -38 17 -86 91 -873 1325 -458 719
-837 1321 -843 1337 -6 17 -8 46 -5 65 6 35 465 772 516 828 14 15 35 32 46
36 33 14 95 11 131 -6z"/>
<path d="M5065 6456 c-16 -7 -40 -24 -51 -37 -12 -13 -267 -412 -568 -886
l-547 -863 217 -342 c119 -189 226 -354 238 -366 50 -56 129 -68 187 -29 26
17 168 234 573 872 568 895 568 895 536 956 -49 94 -425 670 -447 684 -35 23
-101 29 -138 11z"/>
</g>
</svg>
