<?xml version="1.0" encoding="utf-8"?>
<!-- Generator: Adobe Illustrator 23.1.1, SVG Export Plug-In . SVG Version: 6.00 Build 0)  -->
<svg version="1.2" baseProfile="tiny" id="Layer_1" xmlns="http://www.w3.org/2000/svg" xmlns:xlink="http://www.w3.org/1999/xlink"
	 x="0px" y="0px" viewBox="0 0 1024 768" xml:space="preserve">
<g>
	<path fill="#33E5B5" d="M706.78,368.26l-49.26,77.64c-3.2,5.04-3.2,11.48,0,16.53L827,728.47c2.83,4.46,7.74,7.16,13.02,7.16h98.53
		c12.16,0,19.54-13.42,13.02-23.69L732.82,368.26C726.77,358.71,712.83,358.71,706.78,368.26z"/>
	<path fill="#33E5B5" d="M751.28,90.41L751.28,90.41c-15.79-10.02-36.72-5.34-46.74,10.45l-54,95.58c-6.06,9.55-19.99,9.55-26.05,0
		L524.6,39.01c-6.06-9.55-19.99-9.55-26.05,0L71.57,711.94c-6.52,10.27,0.86,23.69,13.02,23.69h98.53c5.28,0,10.19-2.7,13.02-7.16
		l108.37-170.8c6.06-9.55,19.99-9.55,26.05,0l98.73,155.61c6.33,9.98,21.08,9.42,26.64-1.01l307.09-577.33
		C771.35,119.3,766.23,99.89,751.28,90.41z M456.51,502.23c-6.06,9.55-19.99,9.55-26.05,0l-43.17-68.04l-2.21-3.49l113.47-178.83
		c6.06-9.55,19.99-9.55,26.05,0l40.14,63.26c3.2,5.04,3.2,11.48,0,16.53L456.51,502.23L456.51,502.23z"/>
</g>
</svg>
